<svg width="512" height="512" viewBox="0 0 512 512" fill="none" xmlns="http://www.w3.org/2000/svg">
  <defs>
    <linearGradient id="g1" x1="106" y1="88" x2="407" y2="421" gradientUnits="userSpaceOnUse">
      <stop offset="0" stop-color="#5FFBFF"/>
      <stop offset="0.45" stop-color="#00A3FF"/>
      <stop offset="1" stop-color="#8A2BE2"/>
    </linearGradient>
    <linearGradient id="g2" x1="173" y1="118" x2="341" y2="378" gradientUnits="userSpaceOnUse">
      <stop offset="0" stop-color="#00E7FF"/>
      <stop offset="1" stop-color="#A238FF"/>
    </linearGradient>
    <filter id="glow" x="-40%" y="-40%" width="180%" height="180%">
      <feGaussianBlur stdDeviation="9" result="blur"/>
      <feColorMatrix in="blur" type="matrix" values="0 0 0 0 0.1 0 0 0 0 0.55 0 0 0 0 1 0 0 0 0.95 0"/>
      <feMerge><feMergeNode/><feMergeNode in="SourceGraphic"/></feMerge>
    </filter>
  </defs>
  <rect x="32" y="32" width="448" height="448" rx="108" fill="#060B16" stroke="url(#g1)" stroke-width="8"/>
  <circle cx="256" cy="256" r="160" stroke="url(#g1)" stroke-width="22" stroke-linecap="round" stroke-dasharray="780 160" filter="url(#glow)"/>
  <path d="M337 112C298 137 279 170 280 211C252 174 208 166 164 189C216 199 233 226 209 272C189 309 191 354 225 388C218 344 242 316 290 303C343 288 366 250 350 205C340 177 336 149 337 112Z" fill="url(#g2)" filter="url(#glow)"/>
  <path d="M182 380C189 344 215 320 260 308C223 303 193 286 172 257C144 304 147 348 182 380Z" fill="#8A2BE2" opacity=".88"/>
</svg>
